<?xml version="1.0" encoding="UTF-8"?>
<svg id="Layer_1" xmlns="http://www.w3.org/2000/svg" version="1.1" viewBox="850 515 220 50" >
  <!-- Generator: Adobe Illustrator 29.0.1, SVG Export Plug-In . SVG Version: 2.1.0 Build 192)  -->
  <defs>
    <style>
      .st0 {
        fill: red;
      }

      .st1 {
        fill: #a2ff00;
      }

      .st2 {
        fill: #2b2b2b;
      }
    </style>
  </defs>
  <g>
    <path class="st2" d="M886.1,542.5v1.8h-.7c-1.6,4.6-6,8-11.2,8s-11.9-5.3-11.9-11.9,5.3-11.9,11.9-11.9,10.4,4,11.6,9.3h-5.5v-1.3c0-3.4-2.7-6.1-6.1-6.1s-6.1,2.7-6.1,6.1v7.9c0,3.4,2.7,6.1,6.1,6.1s6.1-2.7,6.1-6.1h0c0,0-4.2,0-4.2,0v-1.8h10Z"/>
    <path class="st2" d="M906.4,547.6v4.8h-3.7v-4h0v-.7c0-2.7-2.2-4.9-4.9-4.9s0,0,0,0h0s-4.8,0-4.8,0v4.5c0,.1,0,.2,0,.4v4.8h-5v-23.8h11.2c3.9,0,7.1,3.2,7.1,7.1s-1,4.2-2.6,5.5c1.7,1.6,2.7,3.9,2.7,6.4ZM903.7,534.8c0-2.4-1.9-4.3-4.3-4.3h-6.4v1.8h0v6.8h4.5s2,0,2,0c2.4,0,4.3-1.9,4.3-4.3Z"/>
    <path class="st0" d="M934.2,540.5c0,6.6-5.3,11.9-11.9,11.9s-11.9-5.3-11.9-11.9,5.3-11.9,11.9-11.9,11.9,5.3,11.9,11.9ZM929.4,533.4c-2.4-2.4-6.3-2.4-8.6,0l-5.6,5.6c-2.4,2.4-2.4,6.3,0,8.6,2.4,2.4,6.3,2.4,8.6,0l5.6-5.6c2.4-2.4,2.4-6.3,0-8.6Z"/>
    <path class="st2" d="M961.3,542.8c-1.1,5.5-5.9,9.6-11.7,9.6s-11.9-5.3-11.9-11.9,5.3-11.9,11.9-11.9,10.4,4,11.6,9.3h-2.7c0-1.6-.5-3.3-1.8-4.5-2.4-2.4-6.3-2.4-8.6,0l-5.6,5.6c-2.4,2.4-2.4,6.3,0,8.6,2.4,2.4,6.3,2.4,8.6,0l4.8-4.8h5.3Z"/>
    <path class="st2" d="M980.8,542.3h0s-15.6,0-15.6,0c-.3,1.9.3,3.8,1.7,5.3,2.4,2.4,6.3,2.4,8.6,0l2.5-2.5h6.9c-1.8,4.2-6,7.2-10.9,7.2s-11.9-5.3-11.9-11.9,5.3-11.9,11.9-11.9,11.9,5.3,11.9,11.9,0,1.2-.1,1.9h-4.9ZM982.8,538.6c.3-1.9-.3-3.8-1.7-5.3-2.4-2.4-6.3-2.4-8.6,0l-5.3,5.3h15.6Z"/>
    <path class="st2" d="M1006.3,547.6v4.8h-3.7v-4h0v-.7c0-2.7-2.2-4.9-4.9-4.9s0,0,0,0h0s-4.8,0-4.8,0v4.5c0,.1,0,.2,0,.4v4.8h-5v-23.8h11.2c3.9,0,7.1,3.2,7.1,7.1s-1,4.2-2.6,5.5c1.7,1.6,2.7,3.9,2.7,6.4ZM1003.6,534.8c0-2.4-1.9-4.3-4.3-4.3h-6.4v1.8h0v6.8h4.5s2,0,2,0c2.4,0,4.3-1.9,4.3-4.3Z"/>
    <path class="st2" d="M1008,550.3c.2-.8.3-1.5.3-2.2v-17.9c0-.3-.1-.6-.4-.9-.2-.3-.5-.5-.7-.7h6.4c-.2.2-.4.4-.7.7-.3.3-.4.6-.4.9v18c0,.7.1,1.4.3,2.2.2.8.5,1.5.8,2.1h-6.4c.3-.6.6-1.3.8-2.1ZM1010.5,528.2l-2.4-2.4,2.4-2.4,2.4,2.4-2.4,2.4Z"/>
    <path class="st2" d="M1032.9,542.3h0s-15.6,0-15.6,0c-.3,1.9.3,3.8,1.7,5.3,2.4,2.4,6.3,2.4,8.6,0l2.5-2.5h6.9c-1.8,4.2-6,7.2-10.9,7.2s-11.9-5.3-11.9-11.9,5.3-11.9,11.9-11.9,11.9,5.3,11.9,11.9,0,1.2-.1,1.9h-4.9ZM1034.9,538.6c.3-1.9-.3-3.8-1.7-5.3-2.4-2.4-6.3-2.4-8.6,0l-5.3,5.3h15.6Z"/>
    <path class="st2" d="M1042.4,537.4l15.2,5.4v.4c0,5.1-4.2,9.3-9.3,9.3s-9.3-4.2-9.3-9.3h3.9c.1.2.3.4.5.6l3.8,3.8c1.6,1.6,4.3,1.6,5.9,0,1.1-1.1,1.4-2.7,1.1-4.1l-15.2-5.4v-.3c0-5.1,4.2-9.3,9.3-9.3s9.3,4.2,9.3,9.3h-3.9c-.1-.2-.3-.4-.5-.6l-3.8-3.8c-1.6-1.6-4.3-1.6-5.9,0-1.1,1.1-1.4,2.6-1.1,4Z"/>
  </g>
  <g>
    <path class="st2" d="M920.8,533.4l-5.6,5.6c-2.4,2.4-2.4,6.3,0,8.6,2.4,2.4,6.3,2.4,8.6,0l5.6-5.6c2.4-2.4,2.4-6.3,0-8.6s-6.3-2.4-8.6,0Z"/>
    <path class="st2" d="M929.7,524.4h-14.8c-3.5,0-6.3,2.9-6.3,6.3v19.5c0,3.5,2.9,6.3,6.3,6.3h14.8c3.5,0,6.3-2.9,6.3-6.3v-19.5c0-3.5-2.9-6.3-6.3-6.3ZM922.3,552.4c-6.6,0-11.9-5.3-11.9-11.9s5.3-11.9,11.9-11.9,11.9,5.3,11.9,11.9-5.3,11.9-11.9,11.9Z"/>
  </g>
  <path class="st1" d="M1010.5,528.2l-2.4-2.4,2.4-2.4,2.4,2.4-2.4,2.4Z"/>
  <path class="st0" d="M922.1,543.4l-2.4-2.4,2.4-2.4,2.4,2.4-2.4,2.4Z"/>
</svg>